# xmcd CD database file
#
# Track frame offsets:
#	150
#	14588
#	29289
#	43063
#	57623
#	72092
#	85582
#	100107
#	114484
#	129633
#	144276
#	157686
#	171109
#	186257
#	201022
#	215822
#	228688
#	243477
#	255915
#	270659
#	285745
#	300593
#	316044
#	329990
#
# Disc length: 4595 seconds
#
# Revision: 1
# Processed by: cddbd v1.5.2PL0 Copyright (c) Steve Scherf et al.
# Submitted via: CDex 1.50beta10
#
DISCID=5a11f118
DTITLE=Billie Holiday - The Complete Masters CD9
DYEAR=1946
DGENRE=Jazz
TTITLE0=Baby, I Don't Cry Over You
TTITLE1=I'll Look Around
TTITLE2=The Blues Are Brewin'
TTITLE3=Guilty
TTITLE4=Deep Song
TTITLE5=There Is No Greater Love
TTITLE6=Easy Living
TTITLE7=Solitude
TTITLE8=Weep No More
TTITLE9=Girls Were Made to Take Care of Boys
TTITLE10=I Loves You Porgy
TTITLE11=My Man
TTITLE12='Tain't Nobody's Bizness If I Do
TTITLE13=Baby, Get Lost
TTITLE14=Keeps On A-Rainin'
TTITLE15=Them There Eyes
TTITLE16=Do Your Duty
TTITLE17=Gimme a Pigfoot and a Bottle of Beer
TTITLE18=You Can't Lose a Broken Heart
TTITLE19=My Sweet Hunk O'Trash
TTITLE20=Now or Never
TTITLE21=You're My Thrill
TTITLE22=Crazy He Calls Me
TTITLE23=Please Tell Me Now
EXTD=YEAR: 1946
EXTT0=
EXTT1=
EXTT2=
EXTT3=
EXTT4=
EXTT5=
EXTT6=
EXTT7=
EXTT8=
EXTT9=
EXTT10=
EXTT11=
EXTT12=
EXTT13=
EXTT14=
EXTT15=
EXTT16=
EXTT17=
EXTT18=
EXTT19=
EXTT20=
EXTT21=
EXTT22=
EXTT23=
PLAYORDER=
